<svg width="178" height="90" viewBox="0 0 178 90" fill="none" xmlns="http://www.w3.org/2000/svg">
<path d="M0 58.8156H35.5014C35.9951 58.8156 36.415 58.4552 36.4898 57.9672L42.058 21.6451C42.2301 20.5223 43.8439 20.5104 44.0325 21.6306L50.3643 59.2254C50.5353 60.2408 51.9442 60.3661 52.2917 59.3968L59.3517 39.7032C59.6884 38.7639 61.0423 38.843 61.2673 39.8152L65.4854 58.0411C65.5903 58.4946 65.9942 58.8156 66.4596 58.8156H82.7768C83.2429 58.8156 83.6471 58.4937 83.7514 58.0395L96.5022 2.52148C96.7594 1.40175 98.3929 1.52845 98.4743 2.67444L104.531 87.9006C104.612 89.0446 106.242 89.1737 106.502 88.0568L115.417 49.8223C115.639 48.8716 116.952 48.7693 117.318 49.6742L120.765 58.1908C120.918 58.5685 121.285 58.8156 121.692 58.8156H178" stroke="#0DD251" stroke-width="2"/>
</svg>
