<svg width="501" height="117" viewBox="0 0 501 117" fill="none" xmlns="http://www.w3.org/2000/svg">
<path d="M0 59.8156H35.7229C36.1114 59.8156 36.4648 59.5906 36.6291 59.2386L43.5192 44.4763C43.9479 43.5578 45.3137 43.7865 45.4199 44.7945L48.7918 76.8163C48.9089 77.9284 50.4851 78.039 50.7564 76.9541L58.8443 44.6144C59.0884 43.6382 60.4591 43.5933 60.7666 44.5514L65.4418 59.1212C65.5746 59.535 65.9594 59.8156 66.394 59.8156H82.7324C83.2184 59.8156 83.6341 59.4662 83.7176 58.9874L92.7107 7.39628C92.9112 6.2461 94.5841 6.31334 94.6916 7.47589L103.815 106.096C103.922 107.257 105.592 107.326 105.796 106.178L115.528 51.1748C115.703 50.186 117.063 50.0431 117.44 50.9738L120.765 59.1908C120.918 59.5685 121.285 59.8156 121.692 59.8156H178" stroke="#0DD251" stroke-width="2"/>
<path d="M500.5 59.8148H367.481C366.995 59.8148 366.579 60.1645 366.496 60.6435L362.955 81.0075C362.764 82.1065 361.189 82.1149 360.987 81.018L352.017 32.4998C351.814 31.4023 350.238 31.4116 350.048 32.5114L342.436 76.5797C342.247 77.6763 340.677 77.6901 340.469 76.597L337.49 60.9968C337.4 60.5254 336.988 60.1844 336.508 60.1844H320.253C319.773 60.1844 319.361 60.5247 319.271 60.9955L309.548 111.549C309.338 112.643 307.765 112.625 307.58 111.526L294.441 33.3239C294.251 32.1982 292.627 32.2173 292.465 33.3471L287.404 68.5093C287.258 69.5253 285.859 69.6879 285.484 68.7324L282.231 60.4499C282.081 60.0672 281.711 59.8154 281.3 59.8154H178" stroke="#0DD251" stroke-width="2"/>
</svg>
