<svg width="56" height="57" viewBox="0 0 56 57" fill="none" xmlns="http://www.w3.org/2000/svg">
<path d="M32.8393 57H22.4653C21.1261 57 19.9674 56.0681 19.6808 54.7599L18.5209 49.3905C16.9735 48.7125 15.5062 47.8647 14.1461 46.8625L8.91068 48.5298C7.63388 48.937 6.24589 48.3996 5.57618 47.2388L0.377782 38.2584C-0.284592 37.0971 -0.0563909 35.6321 0.927832 34.7272L4.98908 31.0222C4.80439 29.3439 4.80439 27.6504 4.98908 25.972L0.927832 22.2756C-0.0578406 21.3703 -0.286133 19.9036 0.377782 18.7416L5.56478 9.75555C6.23449 8.59474 7.62248 8.05734 8.89928 8.4645L14.1347 10.1318C14.8303 9.61634 15.5544 9.14059 16.3036 8.70675C17.0228 8.30118 17.7629 7.93396 18.5209 7.60665L19.6837 2.24295C19.9689 0.934711 21.1263 0.00140902 22.4653 0H32.8393C34.1782 0.00140902 35.3357 0.934711 35.6209 2.24295L36.7951 7.6095C37.5953 7.96152 38.3747 8.35928 39.1292 8.8008C39.833 9.20782 40.5133 9.65407 41.167 10.1374L46.4053 8.4702C47.6812 8.06456 49.0675 8.60175 49.7369 9.76125L54.9239 18.7473C55.5863 19.9086 55.3581 21.3736 54.3739 22.2784L50.3126 25.9834C50.4973 27.6618 50.4973 29.3553 50.3126 31.0336L54.3739 34.7386C55.3581 35.6435 55.5863 37.1085 54.9239 38.2698L49.7369 47.2558C49.0675 48.4153 47.6812 48.9525 46.4053 48.5469L41.167 46.8796C40.5041 47.3678 39.8153 47.8198 39.1036 48.2334C38.3564 48.6663 37.5857 49.0574 36.7951 49.4048L35.6209 54.7599C35.3345 56.067 34.1774 56.9989 32.8393 57ZM15.1693 40.5527L17.5063 42.2626C18.0331 42.6507 18.5822 43.0075 19.1507 43.3314C19.6857 43.6412 20.2365 43.9228 20.8009 44.175L23.4599 45.3406L24.7624 51.3H30.5479L31.8503 45.3378L34.5094 44.1721C35.6702 43.6602 36.772 43.0238 37.7954 42.274L40.1353 40.564L45.9521 42.4165L48.8449 37.4062L44.3333 33.2937L44.6525 30.4095C44.7927 29.148 44.7927 27.8748 44.6525 26.6133L44.3333 23.7291L48.8477 19.608L45.9521 14.5948L40.1353 16.4473L37.7954 14.7373C36.7717 13.9841 35.67 13.343 34.5094 12.825L31.8503 11.6593L30.5479 5.7H24.7624L23.4542 11.6622L20.8009 12.825C20.236 13.0731 19.6852 13.3518 19.1507 13.6601C18.5857 13.983 18.0395 14.338 17.5148 14.7231L15.175 16.4331L9.36098 14.5806L6.46253 19.608L10.9741 23.7148L10.6549 26.6019C10.5147 27.8634 10.5147 29.1366 10.6549 30.3981L10.9741 33.2823L6.46253 37.3948L9.35528 42.4051L15.1693 40.5527ZM27.6409 39.9C21.3448 39.9 16.2409 34.796 16.2409 28.5C16.2409 22.204 21.3448 17.1 27.6409 17.1C33.9369 17.1 39.0409 22.204 39.0409 28.5C39.033 34.7928 33.9337 39.8921 27.6409 39.9ZM27.6409 22.8C24.527 22.8032 21.9919 25.3047 21.9472 28.4183C21.9026 31.5319 24.365 34.1051 27.4775 34.1975C30.5901 34.2899 33.2008 31.8673 33.3409 28.7565V29.8965V28.5C33.3409 25.352 30.7889 22.8 27.6409 22.8Z" fill="#0DD251"/>
</svg>
