<svg width="49" height="58" viewBox="0 0 49 58" fill="none" xmlns="http://www.w3.org/2000/svg">
<path d="M45.7907 57.0048H0V36.7364H5.06709V51.9377H40.7236V36.7364H45.7907V57.0048ZM35.6565 46.8706H10.1342V41.8035H35.6438V46.8706H35.6565ZM35.6565 40.5367L10.7676 35.3461L11.838 30.4311L36.7333 35.6312L35.647 40.5367H35.6565ZM37.0468 34.0857L13.9915 23.3181V23.2991L16.126 18.6849L39.1845 29.4525L37.0531 34.0889L37.0468 34.0857ZM39.9699 28.2427L20.4299 11.9647H20.4584L23.6665 8.12002L43.1811 24.3854L39.9604 28.2459L39.9699 28.2427ZM44.1122 23.4923L28.8888 3.06876L33.0374 0L48.2577 20.4299L44.1027 23.505L44.1122 23.4923Z" fill="#0DD251"/>
</svg>
