<svg width="75" height="57" viewBox="0 0 75 57" fill="none" xmlns="http://www.w3.org/2000/svg">
<path d="M0 57H7.6C7.6 48.6053 14.4053 41.8 22.8 41.8C31.1947 41.8 38 48.6053 38 57H45.6C45.6 44.4079 35.3921 34.2 22.8 34.2C10.2079 34.2 0 44.4079 0 57Z" fill="#0DD251"/>
<path d="M7.6 15.2C7.6 6.80527 14.4053 0 22.8 0C31.1947 0 38 6.80527 38 15.2C37.9895 23.5904 31.1904 30.3895 22.8 30.4C14.4053 30.4 7.6 23.5947 7.6 15.2ZM15.2085 15.0911C15.149 19.2426 18.4321 22.6735 22.5822 22.7967C26.7323 22.9198 30.2132 19.6897 30.4 15.542V15.2C30.4 11.0026 26.9974 7.6 22.8 7.6C18.6481 7.60421 15.268 10.9396 15.2085 15.0911Z" fill="#0DD251"/>
<path d="M62.0882 41.7978C61.2978 41.0948 60.4048 40.3614 59.4586 39.5862L59.28 39.4418L59.2589 39.4246C54.8659 35.8403 49.4 31.3807 49.4 25.8378C49.4006 23.9984 50.142 22.2368 51.4569 20.9505C52.7717 19.6642 54.5492 18.9618 56.3882 19.0016C58.5625 18.9958 60.6361 19.9178 62.0882 21.5362C63.5406 19.9182 65.614 18.9962 67.7882 19.0016C69.6252 18.9659 71.3994 19.6707 72.711 20.9574C74.0227 22.244 74.7615 24.0042 74.7612 25.8416C74.7612 31.4076 69.2531 35.9001 64.8242 39.5123L64.8128 39.5216L64.5962 39.7002L64.5271 39.7568C63.6521 40.473 62.8249 41.1501 62.0844 41.8054L62.0882 41.7978Z" fill="#0DD251"/>
</svg>
